<?xml version="1.0" standalone="no"?>
<!DOCTYPE svg PUBLIC "-//W3C//DTD SVG 20010904//EN"
 "http://www.w3.org/TR/2001/REC-SVG-20010904/DTD/svg10.dtd">
<svg version="1.0" xmlns="http://www.w3.org/2000/svg"
 width="863.000000pt" height="1280.000000pt" viewBox="0 0 863.000000 1280.000000"
 preserveAspectRatio="xMidYMid meet">
<metadata>
Created by potrace 1.15, written by Peter Selinger 2001-2017
</metadata>
<g transform="translate(0.000000,1280.000000) scale(0.100000,-0.100000)"
fill="#000000" stroke="none">
<path d="M4695 12734 c-1533 -291 -1426 -269 -1511 -312 -56 -28 -136 -103
-172 -159 -33 -52 -2987 -7280 -3002 -7347 -5 -22 -10 -65 -10 -93 0 -30 62
-347 145 -740 126 -598 150 -697 180 -759 46 -94 129 -173 232 -221 68 -32 90
-37 173 -40 89 -4 135 3 685 107 325 61 874 165 1220 230 347 65 821 155 1055
199 916 173 1173 221 1190 221 10 0 20 -10 23 -22 3 -13 97 -453 208 -978 110
-525 210 -979 221 -1008 46 -124 167 -236 303 -280 107 -36 184 -30 539 37
171 33 457 87 636 121 654 123 655 123 764 232 99 100 158 252 141 368 -6 42
-198 959 -350 1674 -36 170 -63 311 -61 314 3 2 218 44 478 93 260 49 489 94
508 100 199 65 340 253 340 455 0 24 -50 280 -110 567 -61 287 -118 556 -126
597 -42 200 -175 347 -359 395 -86 22 -174 19 -347 -14 -84 -16 -301 -57 -481
-91 -181 -34 -332 -58 -336 -54 -4 5 -42 173 -84 374 -42 201 -193 921 -337
1600 -432 2047 -575 2721 -730 3460 -132 624 -153 712 -185 776 -78 158 -258
265 -440 263 -33 0 -213 -29 -400 -65z m-566 -5266 c183 -871 334 -1587 335
-1593 1 -11 -112 -34 -969 -195 -324 -61 -691 -130 -815 -154 -124 -24 -227
-42 -228 -40 -2 1 274 742 613 1646 340 904 641 1705 669 1780 28 76 53 138
56 138 3 0 155 -712 339 -1582z"/>
</g>
</svg>
