<svg width="200" height="300" viewBox="0 0 200 300" fill="none" xmlns="http://www.w3.org/2000/svg">
  <rect x="0.5" y="0.5" width="199" height="299" fill="#222222" stroke="#444444"/>
  <rect x="20" y="20" width="160" height="260" fill="#333333"/>

  <rect x="0" y="0" width="20" height="300" fill="#111111"/>
  <rect x="180" y="0" width="20" height="300" fill="#111111"/>

  <circle cx="10" cy="15" r="4" fill="#555555"/>
  <circle cx="10" cy="35" r="4" fill="#555555"/>
  <circle cx="10" cy="55" r="4" fill="#555555"/>
  <circle cx="10" cy="75" r="4" fill="#555555"/>
  <circle cx="10" cy="95" r="4" fill="#555555"/>
  <circle cx="10" cy="115" r="4" fill="#555555"/>
  <circle cx="10" cy="135" r="4" fill="#555555"/>
  <circle cx="10" cy="155" r="4" fill="#555555"/>
  <circle cx="10" cy="175" r="4" fill="#555555"/>
  <circle cx="10" cy="195" r="4" fill="#555555"/>
  <circle cx="10" cy="215" r="4" fill="#555555"/>
  <circle cx="10" cy="235" r="4" fill="#555555"/>
  <circle cx="10" cy="255" r="4" fill="#555555"/>
  <circle cx="10" cy="275" r="4" fill="#555555"/>
  <circle cx="10" cy="295" r="4" fill="#555555"/>

  <circle cx="190" cy="15" r="4" fill="#555555"/>
  <circle cx="190" cy="35" r="4" fill="#555555"/>
  <circle cx="190" cy="55" r="4" fill="#555555"/>
  <circle cx="190" cy="75" r="4" fill="#555555"/>
  <circle cx="190" cy="95" r="4" fill="#555555"/>
  <circle cx="190" cy="115" r="4" fill="#555555"/>
  <circle cx="190" cy="135" r="4" fill="#555555"/>
  <circle cx="190" cy="155" r="4" fill="#555555"/>
  <circle cx="190" cy="175" r="4" fill="#555555"/>
  <circle cx="190" cy="195" r="4" fill="#555555"/>
  <circle cx="190" cy="215" r="4" fill="#555555"/>
  <circle cx="190" cy="235" r="4" fill="#555555"/>
  <circle cx="190" cy="255" r="4" fill="#555555"/>
  <circle cx="190" cy="275" r="4" fill="#555555"/>
  <circle cx="190" cy="295" r="4" fill="#555555"/>

  <text x="50%" y="50%" dominant-baseline="middle" text-anchor="middle" font-family="Arial, sans-serif" font-size="20" fill="#AAAAAA">No Poster</text>
</svg>